<?xml version="1.0" standalone="no"?><!DOCTYPE svg PUBLIC "-//W3C//DTD SVG 1.1//EN" "http://www.w3.org/Graphics/SVG/1.1/DTD/svg11.dtd"><svg t="1572746132442" class="icon" viewBox="0 0 1024 1024" version="1.1" xmlns="http://www.w3.org/2000/svg" p-id="3057" xmlns:xlink="http://www.w3.org/1999/xlink" width="200" height="200"><defs><style type="text/css"></style></defs><path d="M432.1 482.5H156.9c-27.8 0-50.4-22.6-50.4-50.4V156.9c0-27.8 22.6-50.4 50.4-50.4h275.2c27.8 0 50.4 22.6 50.4 50.4v275.2c0 27.8-22.6 50.4-50.4 50.4z m-275.2-344c-10.1 0-18.4 8.3-18.4 18.4v275.2c0 10.1 8.3 18.4 18.4 18.4h275.2c10.1 0 18.4-8.3 18.4-18.4V156.9c0-10.1-8.3-18.4-18.4-18.4H156.9z" fill="" p-id="3058"></path><path d="M879 442H631c-26.5 0-48-21.5-48-48V146c0-26.5 21.5-48 48-48h248c26.5 0 48 21.5 48 48v248c0 26.5-21.5 48-48 48z" fill="#8274E8" p-id="3059"></path><path d="M869.6 483H594.4c-27.8 0-50.4-22.6-50.4-50.4V157.4c0-27.8 22.6-50.4 50.4-50.4h275.2c8.8 0 16 7.2 16 16s-7.2 16-16 16H594.4c-10.1 0-18.4 8.3-18.4 18.4v275.2c0 10.1 8.3 18.4 18.4 18.4h275.2c10.1 0 18.4-8.3 18.4-18.4V233.2c0-8.8 7.2-16 16-16s16 7.2 16 16v199.4c0 27.8-22.6 50.4-50.4 50.4zM432.1 920.5H156.9c-27.8 0-50.4-22.6-50.4-50.4V594.9c0-27.8 22.6-50.4 50.4-50.4h275.2c27.8 0 50.4 22.6 50.4 50.4v275.2c0 27.8-22.6 50.4-50.4 50.4z m-275.2-344c-10.1 0-18.4 8.3-18.4 18.4v275.2c0 10.1 8.3 18.4 18.4 18.4h275.2c10.1 0 18.4-8.3 18.4-18.4V594.9c0-10.1-8.3-18.4-18.4-18.4H156.9zM869.6 921H594.4c-27.8 0-50.4-22.6-50.4-50.4V595.4c0-27.8 22.6-50.4 50.4-50.4h275.2c27.8 0 50.4 22.6 50.4 50.4v275.2c0 27.8-22.6 50.4-50.4 50.4zM594.4 577c-10.1 0-18.4 8.3-18.4 18.4v275.2c0 10.1 8.3 18.4 18.4 18.4h275.2c10.1 0 18.4-8.3 18.4-18.4V595.4c0-10.1-8.3-18.4-18.4-18.4H594.4z" fill="" p-id="3060"></path></svg>