<?xml version="1.0" standalone="no"?><!DOCTYPE svg PUBLIC "-//W3C//DTD SVG 1.1//EN" "http://www.w3.org/Graphics/SVG/1.1/DTD/svg11.dtd"><svg t="1574317038384" class="icon" viewBox="0 0 1024 1024" version="1.1" xmlns="http://www.w3.org/2000/svg" p-id="4291" xmlns:xlink="http://www.w3.org/1999/xlink" width="200" height="200"><defs><style type="text/css"></style></defs><path d="M620.7488 656.7936l-253.44-253.44a25.6 25.6 0 0 1 36.1984-36.1472l253.44 253.44a25.6 25.6 0 0 1-36.1984 36.1472z m-289.6384-108.544a25.6 25.6 0 0 1-36.1984 36.1472L150.1184 439.6032c-70.656-70.656-61.3376-192.1024 18.0736-271.5648 79.4112-79.36 200.8576-88.7296 271.5136-18.0736l144.8448 144.7936a25.6 25.6 0 0 1-36.1984 36.1984L403.456 186.1632c-49.3056-49.3056-138.5472-42.4448-199.1168 18.1248C143.872 264.8064 136.96 354.0992 186.368 403.4048l144.7936 144.7936z m362.0352-72.448a25.6 25.6 0 0 1 36.1984-36.1984l144.8448 144.7936c70.656 70.656 61.2864 192.1024-18.1248 271.5648-79.36 79.36-200.8576 88.7296-271.5136 18.0736l-144.8448-144.7936a25.6 25.6 0 1 1 36.1984-36.1984l144.8448 144.7936c49.3056 49.3056 138.5472 42.4448 199.1168-18.1248 60.5696-60.5184 67.4304-149.8112 18.1248-199.1168l-144.8448-144.7936z" fill="#9DA7B2" p-id="4292"></path></svg>