<?xml version="1.0" standalone="no"?><!DOCTYPE svg PUBLIC "-//W3C//DTD SVG 1.1//EN" "http://www.w3.org/Graphics/SVG/1.1/DTD/svg11.dtd"><svg t="1572672058829" class="icon" viewBox="0 0 1024 1024" version="1.1" xmlns="http://www.w3.org/2000/svg" p-id="1909" xmlns:xlink="http://www.w3.org/1999/xlink" width="200" height="200"><defs><style type="text/css"></style></defs><path d="M682.479065 511.948836 682.479065 97.416608 339.37204 97.416608l0 209.466174L63.904067 306.882782l0 616.733087 275.467972 0 67.639053 0 207.112621 0 68.355351 0 274.751674 0L957.230738 511.948836 682.479065 511.948836 682.479065 511.948836zM338.860398 855.465174 132.054762 855.465174 132.054762 375.033477l206.805636 0L338.860398 855.465174 338.860398 855.465174zM407.522734 855.465174 407.522734 165.567303l206.805636 0 0 346.381533-0.204657 0L614.123713 855.465174 407.522734 855.465174 407.522734 855.465174 407.522734 855.465174zM889.080044 855.465174 682.479065 855.465174l0-275.263316 206.600979 0L889.080044 855.465174 889.080044 855.465174z" p-id="1910"></path></svg>