<?xml version="1.0" standalone="no"?><!DOCTYPE svg PUBLIC "-//W3C//DTD SVG 1.1//EN" "http://www.w3.org/Graphics/SVG/1.1/DTD/svg11.dtd"><svg class="icon" width="200px" height="200.00px" viewBox="0 0 1024 1024" version="1.1" xmlns="http://www.w3.org/2000/svg"><path fill="#f4ea2a" d="M704 992h-364.8c-19.2 0-38.4 0-57.6-12.8-12.8-6.4-25.6-19.2-32-32-6.4-12.8-6.4-25.6-6.4-38.4V569.6c-6.4 0-6.4 6.4-12.8 6.4-19.2 6.4-44.8 6.4-64-6.4-6.4-6.4-12.8-12.8-19.2-12.8l-12.8-12.8-38.4-32-19.2-19.2-19.2-19.2-6.4-6.4-6.4-6.4c-6.4-6.4-19.2-19.2-25.6-32-6.4-6.4-12.8-19.2-6.4-38.4 6.4-25.6 25.6-44.8 38.4-57.6l12.8-12.8 12.8-12.8 160-160c6.4-6.4 19.2-19.2 32-25.6l25.6-6.4s64-6.4 89.6 0c6.4 0 19.2 6.4 25.6 12.8 6.4 6.4 12.8 12.8 19.2 25.6 6.4 6.4 12.8 12.8 25.6 19.2 12.8 6.4 25.6 6.4 38.4 12.8h32c32-6.4 44.8-12.8 64-25.6l6.4-6.4c6.4-6.4 6.4-12.8 19.2-19.2l19.2-12.8c6.4 0 12.8-6.4 12.8-6.4h64c25.6 0 38.4 0 51.2 6.4 12.8 6.4 19.2 12.8 32 25.6l153.6 147.2 19.2 19.2 19.2 19.2 6.4 6.4c6.4 6.4 19.2 19.2 25.6 38.4v12.8c6.4 25.6-12.8 44.8-19.2 51.2l-96 96c-12.8 12.8-32 32-57.6 38.4-19.2 6.4-38.4 0-51.2-6.4v345.6s0 32-12.8 51.2c-12.8 19.2-51.2 25.6-76.8 25.6z m-12.8-38.4h32l25.6-12.8 6.4-19.2V512l32-19.2 25.6 25.6c12.8 12.8 19.2 19.2 32 19.2s19.2-12.8 32-25.6l96-89.6c6.4-6.4 6.4-12.8 6.4-19.2v-6.4c0-6.4-6.4-6.4-12.8-12.8l-6.4-6.4-19.2-19.2-19.2-19.2-153.6-147.2c-6.4-6.4-12.8-12.8-19.2-12.8H659.2l-12.8 6.4-6.4 6.4c-6.4 6.4-6.4 12.8-12.8 19.2-25.6 19.2-44.8 25.6-83.2 32-12.8 0-25.6 6.4-32 0h-19.2c-19.2-6.4-38.4-6.4-51.2-12.8s-32-19.2-44.8-32c-6.4-6.4-6.4-12.8-12.8-12.8h-83.2c-6.4 0-12.8 6.4-25.6 12.8l-32 25.6-134.4 128-12.8 12.8-12.8 12.8c-12.8 12.8-19.2 19.2-25.6 32 0 0 0 6.4 6.4 6.4 0 6.4 6.4 12.8 12.8 19.2l6.4 6.4 6.4 6.4 12.8 12.8 19.2 19.2 44.8 44.8c6.4 6.4 6.4 6.4 12.8 6.4 6.4 6.4 12.8 6.4 19.2 6.4 6.4-6.4 19.2-12.8 25.6-19.2l19.2-19.2 32 19.2V940.8c0 6.4 6.4 6.4 12.8 12.8s25.6 6.4 32 6.4h371.2" /></svg>