<?xml version="1.0" standalone="no"?><!DOCTYPE svg PUBLIC "-//W3C//DTD SVG 1.1//EN" "http://www.w3.org/Graphics/SVG/1.1/DTD/svg11.dtd"><svg t="1572677630753" class="icon" viewBox="0 0 1024 1024" version="1.1" xmlns="http://www.w3.org/2000/svg" p-id="4938" xmlns:xlink="http://www.w3.org/1999/xlink" width="200" height="200"><defs><style type="text/css"></style></defs><path d="M1024 969.955556c0 36.977778-25.6 54.044444-54.044444 54.044444H54.044444C19.911111 1024 0 1012.622222 0 967.111111V369.777778c0-25.6 14.222222-56.888889 56.888889-56.888889h113.777778s28.444444 2.844444 28.444444 28.444444-28.444444 28.444444-28.444444 28.444445H56.888889v597.333333h910.222222V369.777778h-85.333333s-28.444444 0-28.444445-28.444445 28.444444-28.444444 28.444445-28.444444h85.333333c39.822222 0 56.888889 17.066667 56.888889 56.888889v600.177778z m-500.622222-247.466667c-8.533333 8.533333-11.377778 11.377778-14.222222 8.533333-2.844444 0-5.688889-5.688889-14.222223-14.222222L284.444444 483.555556c-14.222222-17.066667-19.911111-28.444444-2.844444-42.666667 8.533333-8.533333 17.066667-11.377778 28.444444-11.377778s25.6 17.066667 34.133334 25.6l142.222222 162.133333V28.444444c0-22.755556 5.688889-28.444444 28.444444-28.444444s28.444444 5.688889 28.444445 28.444444v585.955556l147.911111-173.511111c8.533333-8.533333 34.133333-25.6 56.888889 0 5.688889 8.533333 5.688889 28.444444-11.377778 45.511111l-213.333333 236.088889z" fill="#545E68" p-id="4939"></path></svg>