<?xml version="1.0" standalone="no"?><!DOCTYPE svg PUBLIC "-//W3C//DTD SVG 1.1//EN" "http://www.w3.org/Graphics/SVG/1.1/DTD/svg11.dtd"><svg t="1572675713747" class="icon" viewBox="0 0 1166 1024" version="1.1" xmlns="http://www.w3.org/2000/svg" p-id="1895" xmlns:xlink="http://www.w3.org/1999/xlink" width="227.734375" height="200"><defs><style type="text/css"></style></defs><path d="M882.058985 2.769416C863.503898 0.969296 845.641165 0 829.024669 0c-115.623117 0-184.166162 42.510535-246.201079 107.868752C512.341954 33.094521 431.751949-11.631547 283.588195 2.769416 158.964476 14.954846 17.170379 124.623718 0 336.345569v69.235399C13.84708 589.470188 142.486451 739.434063 507.495476 999.897634a129.331726 129.331726 0 0 0 150.379287 0c365.285966-261.017455 493.371454-410.981329 507.633946-594.870549v-69.235399C1148.476801 124.623718 1006.682703 14.954846 882.058985 2.769416z m189.843464 339.253456v57.465381C1059.301607 550.006011 941.601428 682.245623 603.59421 923.046341a35.725466 35.725466 0 0 1-41.54124 0C224.738106 682.384094 106.345573 550.006011 93.74473 399.488253V342.022872c13.84708-156.887414 112.438288-237.477419 198.982538-245.924138 15.370259-1.523179 30.186634-2.215533 43.895243-2.215533 96.929559 0 143.455747 35.448524 210.337142 115.069234l35.863937 42.787476 36.002408-42.787476c66.742925-79.620709 112.992171-115.069233 210.198671-115.069234 13.84708 0 28.524984 0 43.895243 2.215533 86.544249 8.446719 185.55087 89.036723 198.982537 245.924138z" fill="#4D4D4D" p-id="1896"></path></svg>